<?xml version="1.0" encoding="UTF-8"?>
<svg width="20px" height="22px" viewBox="0 0 20 22" version="1.1" xmlns="http://www.w3.org/2000/svg" xmlns:xlink="http://www.w3.org/1999/xlink">
    <!-- Generator: Sketch 52.5 (67469) - http://www.bohemiancoding.com/sketch -->
    <title>Group 13</title>
    <desc>Created with Sketch.</desc>
    <g id="Page-1" stroke="none" stroke-width="1" fill="none" fill-rule="evenodd">
        <g id="Simple-Components" transform="translate(-100.000000, -1131.000000)" fill="#D90000" stroke="#D90000" stroke-width="0.5">
            <g id="Group-13" transform="translate(101.000000, 1132.000000)">
                <path d="M18.0327869,3.27868852 L18.0327869,4.09836066 L16.6514066,4.09836066 L15.1971418,18.3673713 C15.1294078,19.2648467 14.339034,20 13.4325008,20 L4.01043033,20 C3.1069918,20 2.32751885,19.2670553 2.2763418,18.3629217 L1.18589467,4.09836066 L9.09494702e-13,4.09836066 L9.09494702e-13,3.27868852 L4.91803279,3.27868852 L4.91803279,1.64334549 C4.91803279,0.732704918 5.65185082,0 6.55706148,0 L11.475725,0 C12.3801361,0 13.1147537,0.73575082 13.1147537,1.64334549 L13.1147541,3.27868852 L18.0327869,3.27868852 Z M3.13857336,18.3619459 C3.1662459,18.8139258 3.55770984,19.1803279 4.00930287,19.1803279 L13.652298,19.1803279 C14.1055164,19.1803279 14.4987939,18.814625 14.530818,18.3619459 L15.8935967,4.09836066 L1.95917049,4.09836066 L3.13857336,18.3619459 Z M6.55494262,0.819672131 C6.10359467,0.819672131 5.73770492,1.18781189 5.73770492,1.63848893 L5.73770492,3.27868852 L12.2950816,3.27868852 L12.2950816,1.63848893 C12.2950816,1.18626885 11.9284775,0.819672131 11.4778439,0.819672131 L6.55494262,0.819672131 L6.55494262,0.819672131 Z M5.6927,16.3114754 L6.55737705,16.3114754 L6.14754098,6.36039516 L5.32786885,6.36039516 L5.6927,16.3114754 Z M8.60655738,16.3114754 L9.42622951,16.3114754 L9.42622951,6.36039516 L8.60655738,6.36039516 L8.60655738,16.3114754 Z M11.4754098,16.3114754 L12.295082,16.3114754 L12.704918,6.36039516 L11.931848,6.36039516 L11.4754098,16.3114754 Z" id="trash"></path>
            </g>
        </g>
    </g>
</svg>