<?xml version="1.0" encoding="UTF-8"?>
<svg width="20px" height="20px" viewBox="0 0 20 20" version="1.1" xmlns="http://www.w3.org/2000/svg" xmlns:xlink="http://www.w3.org/1999/xlink">
    <!-- Generator: Sketch 52.5 (67469) - http://www.bohemiancoding.com/sketch -->
    <title>Path</title>
    <desc>Created with Sketch.</desc>
    <g id="Page-1" stroke="none" stroke-width="1" fill="none" fill-rule="evenodd">
        <g id="Simple-Components" transform="translate(-913.000000, -950.000000)" fill="#979797">
            <path d="M925.413084,960 L932.386631,953.026454 C933.138631,952.274454 933.208817,951.123058 932.543715,950.456285 C931.876942,949.791183 930.725546,949.861369 929.973546,950.613369 L923,957.586916 L916.026454,950.613369 C915.274454,949.861369 914.123058,949.791183 913.456285,950.456285 C912.791183,951.123058 912.861369,952.274454 913.613369,953.026454 L920.586916,960 L913.613369,966.973546 C912.861369,967.725546 912.791183,968.876942 913.456285,969.543715 C914.123058,970.208817 915.274454,970.138631 916.026454,969.386631 L923,962.413084 L929.973546,969.386631 C930.725546,970.138631 931.876942,970.208817 932.543715,969.543715 C933.208817,968.876942 933.138631,967.725546 932.386631,966.973546 L925.413084,960 L925.413084,960 Z" id="Path"></path>
        </g>
    </g>
</svg>